<svg xmlns="http://www.w3.org/2000/svg" xmlns:xlink="http://www.w3.org/1999/xlink" width="50" height="50" viewBox="0 0 50 50">
  <defs>
    <style>
      .cls-1 {
        clip-path: url(#clip-_1_P_7);
      }

      .cls-2 {
        fill: #fff;
      }
    </style>
    <clipPath id="clip-_1_P_7">
      <rect width="50" height="50"/>
    </clipPath>
  </defs>
  <g id="_1_P_7" data-name="1 – P – 7" class="cls-1">
    <path id="Icon_awesome-shipping-fast" data-name="Icon awesome-shipping-fast" class="cls-2" d="M41.789,23.573H40.717V16.334a3.215,3.215,0,0,0-.944-2.27l-6.69-6.69a3.215,3.215,0,0,0-2.27-.944H27.859V3.215A3.215,3.215,0,0,0,24.645,0H7.5A3.215,3.215,0,0,0,4.286,3.215V6.429H.536A.537.537,0,0,0,0,6.965V8.036a.537.537,0,0,0,.536.536H18.751a.537.537,0,0,1,.536.536v1.072a.537.537,0,0,1-.536.536H2.679a.537.537,0,0,0-.536.536v1.072a.537.537,0,0,0,.536.536h13.93a.537.537,0,0,1,.536.536v1.072a.537.537,0,0,1-.536.536H.536A.537.537,0,0,0,0,15.537v1.072a.537.537,0,0,0,.536.536h13.93A.537.537,0,0,1,15,17.68v1.072a.537.537,0,0,1-.536.536H4.286v8.572a6.429,6.429,0,1,0,12.858,0h8.572a6.429,6.429,0,1,0,12.858,0h3.215a1.075,1.075,0,0,0,1.072-1.072V24.645A1.075,1.075,0,0,0,41.789,23.573Zm-31.074,7.5a3.215,3.215,0,1,1,3.215-3.215A3.215,3.215,0,0,1,10.715,31.074Zm21.43,0a3.215,3.215,0,1,1,3.215-3.215A3.215,3.215,0,0,1,32.145,31.074ZM37.5,17.144H27.859v-7.5h2.953l6.69,6.69Z" transform="translate(3.57 7.856)"/>
  </g>
</svg>
