<svg id="Group_516" data-name="Group 516" xmlns="http://www.w3.org/2000/svg" width="14.579" height="14.579" viewBox="0 0 14.579 14.579">
  <path id="Icon_awesome-medal" data-name="Icon awesome-medal" d="M6.371,3.723,4.4.442A.911.911,0,0,0,3.621,0H.456A.456.456,0,0,0,.083.717L3.252,5.243A5.893,5.893,0,0,1,6.371,3.723ZM14.122,0H10.958a.911.911,0,0,0-.781.442L8.208,3.723a5.9,5.9,0,0,1,3.12,1.52L14.5.717A.456.456,0,0,0,14.122,0ZM7.289,4.556A5.011,5.011,0,1,0,12.3,9.567,5.012,5.012,0,0,0,7.289,4.556ZM9.924,9.034l-1.08,1.052L9.1,11.573a.327.327,0,0,1-.474.344l-1.336-.7-1.335.7a.327.327,0,0,1-.474-.344l.255-1.487L4.655,9.034a.327.327,0,0,1,.181-.558l1.493-.218L7,6.905a.328.328,0,0,1,.587,0L8.25,8.258l1.493.218a.327.327,0,0,1,.181.558Z" transform="translate(0)" fill="#febc1d"/>
</svg>
